<svg width="0" height="0" class="hidden">
	<symbol xmlns="http://www.w3.org/2000/svg" viewBox="0 0 50 50" id="tick">
		<path d="M42.88 8.63a.17.17 0 00-.1 0 1 1 0 00-.62.47L21.72 40.81 7.66 28.13a1 1 0 00-1.78.47 1 1 0 00.46 1l14.91 13.5a1 1 0 00.8.24 1 1 0 00.7-.45l21.09-32.7a1 1 0 000-1.1 1 1 0 00-.96-.46z"></path>
	</symbol>
	<symbol xmlns="http://www.w3.org/2000/svg" viewBox="0 0 50 50" id="error">
		<path d="M24.84 3.44a1 1 0 00-.71.5L.13 45.5a1 1 0 000 1A1 1 0 001 47h48a1 1 0 00.87-.5 1 1 0 000-1l-24-41.56a1 1 0 00-1.03-.5zm.16 3L47.25 45H2.75zm-1.16 12.47a.32.32 0 00-.34.34v14.47a.34.34 0 00.34.37h2.32a.34.34 0 00.34-.37V19.25a.32.32 0 00-.34-.34zM23.63 37a.32.32 0 00-.19.34v2.63a.32.32 0 00.34.34h2.44a.32.32 0 00.34-.34v-2.66a.32.32 0 00-.34-.34h-2.44c-.05.03-.11.03-.15.03z"></path>
	</symbol>
	<symbol xmlns="http://www.w3.org/2000/svg" viewBox="0 0 50 50" id="close">
		<path d="M7.72 6.28L6.28 7.72 23.56 25 6.28 42.28l1.44 1.44L25 26.44l17.28 17.28 1.44-1.44L26.44 25 43.72 7.72l-1.44-1.44L25 23.56z"></path>
	</symbol>
</svg>