<svg width="0" height="0" class="hidden">
	<symbol xmlns="http://www.w3.org/2000/svg" viewBox="0 0 512 512" id="movie">
		<path d="M440.17 138.22a68 68 0 00-19.8-22.31 66.9 66.9 0 00-49.47-61.38 67.33 67.33 0 00-68-35.65A67.69 67.69 0 00255.94 0a65.92 65.92 0 00-46.47 18.89 67.18 67.18 0 00-68 35.64C110.7 62.78 93 90 91.74 116a65.84 65.84 0 00-19.83 22.78 64.67 64.67 0 00-3.37 54.86l39.76 290.68A32 32 0 00140 512h232.35a32 32 0 0031.73-27.68l40.08-293c5.92-17.13 5.3-36.23-3.99-53.1zM140 480l-39.28-288H176l16.22 288zm148.06 0h-63.78l-16.21-288h96.24zm84.26 0h-52.16l16.21-288h75.28zM98 160c4.42-15.78 17.82-23.38 29.78-24.57-13.9-26.22 9.64-56.43 38.11-50.43.55-29.22 34.33-44.9 56.37-27.17 11.74-41.86 67.59-25.63 67.59 0C312.6 40 345.94 56 346.49 85c28.57-6 51.45 23.81 38.15 50.45 12 1.2 25.44 9.11 29.74 24.57z"></path>
	</symbol>
	<symbol xmlns="http://www.w3.org/2000/svg" viewBox="0 0 640 512" id="tvs">
		<path d="M592 0H48A48 48 0 000 48v320a48 48 0 0048 48h256v64H136a8 8 0 00-8 8v16a8 8 0 008 8h368a8 8 0 008-8v-16a8 8 0 00-8-8H336v-64h256a48 48 0 0048-48V48a48 48 0 00-48-48zm16 368a16 16 0 01-16 16H48a16 16 0 01-16-16V48a16 16 0 0116-16h544a16 16 0 0116 16z"></path>
	</symbol>
	<symbol xmlns="http://www.w3.org/2000/svg" viewBox="0 0 512 512" id="edit">
		<path d="M493.25 56.26l-37.51-37.51C443.25 6.25 426.87 0 410.49 0s-32.76 6.25-45.26 18.74L12.85 371.12.15 485.34C-1.45 499.72 9.88 512 23.95 512c.89 0 1.78-.05 2.69-.15l114.14-12.61 352.48-352.48c24.99-24.99 24.99-65.51-.01-90.5zM126.09 468.68l-93.03 10.31 10.36-93.17 263.89-263.89 82.77 82.77-263.99 263.98zm344.54-344.54l-57.93 57.93-82.77-82.77 57.93-57.93c6.04-6.04 14.08-9.37 22.63-9.37 8.55 0 16.58 3.33 22.63 9.37l37.51 37.51c12.47 12.48 12.47 32.78 0 45.26z"></path>
	</symbol>
</svg>