<svg width="0" height="0" class="hidden">
	<symbol xmlns="http://www.w3.org/2000/svg" viewBox="0 0 192 256.05" id="angleLeft">
		<path d="M25.1,119.52l117.8-116a12,12,0,0,1,17,0l7.1,7.11a12,12,0,0,1,0,17L64.7,128l102.2,100.4a12,12,0,0,1,0,17l-7.1,7.1a12,12,0,0,1-17,0L25,136.52A12.1,12.1,0,0,1,25.1,119.52Z"></path>
	</symbol>
	<symbol xmlns="http://www.w3.org/2000/svg" viewBox="0 0 192 256.05" id="angleRight">
		<path d="M166.9 136.52l-117.8 116a12 12 0 01-17 0l-7.1-7.1a12 12 0 010-17L127.3 128 25.1 27.63a12 12 0 010-17l7.1-7.11a12 12 0 0117 0l117.8 116a12.1 12.1 0 01-.1 17z"></path>
	</symbol>
</svg>