<svg width="0" height="0" class="hidden">
	<symbol xmlns="http://www.w3.org/2000/svg" viewBox="0 0 48 48" id="home">
		<path d="M39.5 43h-9a2.5 2.5 0 01-2.5-2.5v-9a2 2 0 00-2-2h-4a2 2 0 00-2 2v9a2.5 2.5 0 01-2.5 2.5h-9A2.5 2.5 0 016 40.5V21.413a7.502 7.502 0 012.859-5.893L23.071 4.321a1.503 1.503 0 011.857 0L39.142 15.52A7.499 7.499 0 0142 21.411V40.5a2.5 2.5 0 01-2.5 2.5z"></path>
	</symbol>
  <symbol xmlns="http://www.w3.org/2000/svg" viewBox="0 0 50 50" id="search">
    <path d="M22.51.4a21.5 21.5 0 1012.58 38.93L45.41 49.6 49 46.05 38.88 35.93A21.5 21.5 0 0022.51.4zm0 2.53a19 19 0 11-19 19 19 19 0 0119-19z"></path>
  </symbol>
  <symbol xmlns="http://www.w3.org/2000/svg" viewBox="0 0 50 50" id="heart">
    <path d="M15 7C7.832 7 2 12.832 2 20c0 14.762 16.695 22.047 22.375 26.781l.625.532.625-.532C31.305 42.047 48 34.761 48 20c0-7.168-5.832-13-13-13-4.055 0-7.617 1.926-10 4.844C22.617 8.926 19.055 7 15 7zm0 2c3.836 0 7.188 1.969 9.156 4.938l.844 1.25.844-1.25C27.812 10.967 31.164 9 35 9c6.086 0 11 4.914 11 11 0 12.898-14.406 19.574-21 24.781C18.406 39.574 4 32.898 4 20 4 13.914 8.914 9 15 9z"></path>
  </symbol>
  <symbol xmlns="http://www.w3.org/2000/svg" viewBox="0 0 300 300" id="user">
    <path d="M270 279v12h-12v-12a108 108 0 00-216 0v12H30v-12a120 120 0 01240 0zM147 9a60 60 0 1060 60 60.09 60.09 0 00-60-60zm0 108a48 48 0 1148-48 47.91 47.91 0 01-48 48z"></path>
  </symbol>
</svg>