<svg width="0" height="0" class="hidden">
	<symbol
		xmlns="http://www.w3.org/2000/svg" viewBox="0 0 64 32" id="imdb">
		<path fill="#000" d="M.16 4.06h6.63v23.88H.16zm29.19 0v23.88h-5.62V11.82l-2.26 16.12h-4L15.1 12.17v15.77H9.45V4.06h8.33c.24 1.45.5 3.14.77 5.09l.91 6.07L21 4.06zm13 0H32v23.88h10.35a4.22 4.22 0 004.24-4.22V8.28a4.22 4.22 0 00-4.24-4.22zm-2 16.3a7.33 7.33 0 01-.35 2.92c-.23.36-.83.53-1.79.53V8.15a3.4 3.4 0 011.49.21 1 1 0 01.52.66 12.11 12.11 0 01.11 2.08zM59.53 10h-.43a4.51 4.51 0 00-3.51 1.69V4.06h-6.34v23.58h5.94l.39-1.46a4.36 4.36 0 003.52 1.76h.43a4.23 4.23 0 004.31-4.17V14.2a4.24 4.24 0 00-4.31-4.2zm-1.78 11.68a7.7 7.7 0 01-.17 2c-.11.28-.64.42-1 .42s-.87-.16-1-.42v-9.55c.1-.25.65-.4 1-.4a1.21 1.21 0 011 .47 6 6 0 01.17 1.8z"></path>
	</symbol>
	<symbol
		xmlns="http://www.w3.org/2000/svg" viewBox="0 0 384 512" id="add">
		<path fill="#fff" d="M376 232H216V72c0-4.42-3.58-8-8-8h-32c-4.42 0-8 3.58-8 8v160H8c-4.42 0-8 3.58-8 8v32c0 4.42 3.58 8 8 8h160v160c0 4.42 3.58 8 8 8h32c4.42 0 8-3.58 8-8V280h160c4.42 0 8-3.58 8-8v-32c0-4.42-3.58-8-8-8z"></path>
	</symbol>
	<symbol
		xmlns="http://www.w3.org/2000/svg" viewBox="0 0 448 512" id="play">
		<path d="M424.4 214.7L72.4 6.6C43.8-10.3 0 6.1 0 47.9V464c0 37.5 40.7 60.1 72.4 41.3l352-208c31.4-18.5 31.5-64.1 0-82.6z"></path>
	</symbol>
</svg>