<svg id="Layer_1" data-name="Layer 1" xmlns="http://www.w3.org/2000/svg" viewBox="0 0 383.45 154"><defs><style>.cls-1{fill:#ff002e;}</style></defs><path class="cls-1" d="M0,0H64L64,20.32q-19.91.42-39.79,1,0,20.76-.07,41.51,15.57-1.27,31.17-2.3L55.21,81q-15.6,1.38-31.15,3.08Q24,116.53,24,149q-12,2.34-24,5Z"/><path class="cls-1" d="M81.18,0h24.2L105,117.54q20-1.7,40-2.61,0,9.57,0,19.15-32.18,1.71-64.2,5.79Z"/><path class="cls-1" d="M162.36,0h24.2l0,132.85q-12.18.08-24.35.48Z"/><path class="cls-1" d="M210.09,0h24.2q.14,66.95.25,133.88-12.16-.6-24.33-.85Z"/><path class="cls-1" d="M257.83,0H282q.21,68.76.43,137.53-12.12-1.26-24.27-2.18Z"/><path class="cls-1" d="M327.11,70c-8.93-24-17.88-47.3-26.82-70h25.52Q334,23.12,342.2,47.09l.44,0Q350.94,24,359.25,0h22.88c-8.87,25-17.69,49.11-26.49,72.45C365,98.58,374.25,125.69,383.45,154q-12.6-2.82-25.27-5.26-8.78-27.61-17.62-53.92l-.44,0q-8.92,24.35-17.84,47.81-11.41-1.71-22.86-3.12C308.66,116.83,317.88,93.77,327.11,70Z"/></svg>