<svg width="0" height="0" class="hidden">
  <symbol fill="#fff" xmlns="http://www.w3.org/2000/svg" viewBox="0 0 50 50" id="menu">
    <path d="M47,10.56H3a2,2,0,0,1,0-4H47a2,2,0,0,1,0,4Z" style="fill:#fff"/>
    <path d="M38,27H3a2,2,0,0,1,0-4H38a2,2,0,0,1,0,4Z" style="fill:#fff"/>
    <path d="M29,43.44H3a2,2,0,0,1,0-4H29a2,2,0,0,1,0,4Z" style="fill:#fff"/>
  </symbol>
  <symbol fill="#fff" xmlns="http://www.w3.org/2000/svg" viewBox="0 0 50 50" id="search">
    <path d="M23.05,5.55A17,17,0,1,0,33,36.33l8.16,8.12L44,41.64l-8-8A17,17,0,0,0,23.05,5.55Zm0,2a15,15,0,1,1-15,15A15,15,0,0,1,23.05,7.55Z"></path>
  </symbol>
  <symbol fill="#fff" xmlns="http://www.w3.org/2000/svg" viewBox="0 0 50 50" id="arrowLeft">
    <path d="M17.78,7.86a1.4,1.4,0,0,0-.8.45L1.31,23.93l-1,1,1,1L17,41.62a1.41,1.41,0,0,0,1.44.5A1.45,1.45,0,0,0,19.5,41,1.47,1.47,0,0,0,19,39.6L5.8,26.4H48.22a1.45,1.45,0,0,0,1.27-.71,1.5,1.5,0,0,0,0-1.45,1.45,1.45,0,0,0-1.27-.71H5.8L19,10.33a1.44,1.44,0,0,0-1.22-2.47Z"></path>
  </symbol>
  <symbol fill="#fff" xmlns="http://www.w3.org/2000/svg" viewBox="0 0 25 25" id="sortDown">
    <path d="M2.17,4.42h20.66c1.86,0,2.79,2.5,1.48,3.96L13.98,19.89c-0.82,0.91-2.14,0.91-2.94,0L0.69,8.39
	C-0.62,6.93,0.31,4.42,2.17,4.42z"></path>
  </symbol>
  <symbol fill="#fff" xmlns="http://www.w3.org/2000/svg" viewBox="0 0 50 50" id="heart">
    <path d="M25.14,43.91a1.54,1.54,0,0,1-.18-.16,52.51,52.51,0,0,0-6.71-5.94c-2.3-1.76-4.63-3.48-6.93-5.22a39.81,39.81,0,0,1-5.56-5.06,16.18,16.18,0,0,1-3.2-5.13,13.23,13.23,0,0,1-.76-6A11.21,11.21,0,0,1,6,8.61,11.74,11.74,0,0,1,10.7,6.42a12.41,12.41,0,0,1,8,.79,11.34,11.34,0,0,1,5.06,4.63c.39.65.71,1.34,1.07,2a3.09,3.09,0,0,0,.16.27c.07-.16.14-.3.2-.42a13,13,0,0,1,4.33-5.4,11.43,11.43,0,0,1,5.33-2.07,12.34,12.34,0,0,1,4.49.19A11,11,0,0,1,48,15a14,14,0,0,1,.18,4.56,11.7,11.7,0,0,1-.76,2.72,19,19,0,0,1-4.3,6.55,41.25,41.25,0,0,1-4.66,4c-2.3,1.77-4.61,3.49-6.89,5.28a49.91,49.91,0,0,0-5.66,5C25.64,43.35,25.41,43.63,25.14,43.91Z" style="fill:none;stroke:#fff;stroke-miterlimit:10;stroke-width:3px"></path>
  </symbol>
</svg>