<svg xmlns="http://www.w3.org/2000/svg" viewBox="0 0 1777.18 848.71">
	<polygon points="1207.08 167.5 1777.18 0 1363.08 226.8 1207.08 167.5" style="fill:#39e6bd"/>
	<polygon points="1777.18 0 1363.08 226.8 1429.58 368.5 1777.18 0" style="fill:#15c39a"/>
	<polygon points="1777.18 0 1447.08 256.5 1579.78 438.7 1777.18 0" style="fill:#39e6bd"/>
	<polygon points="1429.58 368.5 1447.08 256.5 1485.48 309.2 1429.58 368.5" style="fill:#099171"/>
	<path d="M1390.5,557.4s-2.5,2.5-7.2,6.9" transform="translate(-4.82 -165)" style="fill:none;stroke:#15c39a;stroke-miterlimit:10;stroke-width:10px"/>
	<path d="M1368.3,577.8c-62.6,55.1-247.4,199.7-416.4,156.1-207.5-53.4-166.3-275.2-43.8-274.8S1105.5,673,1039.5,814s-270,243-552.1,171C258.1,926.5,68.4,685.3,20.6,620.1" transform="translate(-4.82 -165)" style="fill:none;stroke:#15c39a;stroke-miterlimit:10;stroke-width:10px;stroke-dasharray:20.130399703979492,20.130399703979492"/>
	<path d="M14.7,611.9c-3.8-5.3-5.7-8.2-5.7-8.2" transform="translate(-4.82 -165)" style="fill:none;stroke:#15c39a;stroke-miterlimit:10;stroke-width:10px"/>
</svg>