<svg xmlns="http://www.w3.org/2000/svg" viewBox="0 0 64 64">
	<linearGradient id="MhiQYBXFKynsC8~zn9Kjpb" x1="18.5" x2="18.5" y1="27" y2="38" gradientUnits="userSpaceOnUse" spreadMethod="reflect">
		<stop offset="0" stop-color="#40daf2"></stop>
		<stop offset=".259" stop-color="#3bd3ef"></stop>
		<stop offset=".624" stop-color="#2ec1e8"></stop>
		<stop offset="1" stop-color="#1ba7dd"></stop>
	</linearGradient>
	<path fill="url(#MhiQYBXFKynsC8~zn9Kjpb)" d="M19,38l-7.434-1.652C10.651,36.145,10,35.333,10,34.396V33c0-3.314,2.686-6,6-6h11L19,38z"></path>
	<linearGradient id="MhiQYBXFKynsC8~zn9Kjpc" x1="32.5" x2="32.5" y1="38" y2="55" gradientUnits="userSpaceOnUse" spreadMethod="reflect">
		<stop offset="0" stop-color="#40daf2"></stop>
		<stop offset=".259" stop-color="#3bd3ef"></stop>
		<stop offset=".624" stop-color="#2ec1e8"></stop>
		<stop offset="1" stop-color="#1ba7dd"></stop>
	</linearGradient>
	<path fill="url(#MhiQYBXFKynsC8~zn9Kjpc)" d="M27,46l1.652,7.434C28.855,54.349,29.667,55,30.604,55H32c3.314,0,6-2.686,6-6V38L27,46z"></path>
	<linearGradient id="MhiQYBXFKynsC8~zn9Kjpd" x1="37" x2="37" y1="46" y2="10" gradientUnits="userSpaceOnUse" spreadMethod="reflect">
		<stop offset="0" stop-color="#155cde"></stop>
		<stop offset=".278" stop-color="#1f7fe5"></stop>
		<stop offset=".569" stop-color="#279ceb"></stop>
		<stop offset=".82" stop-color="#2cafef"></stop>
		<stop offset="1" stop-color="#2eb5f0"></stop>
	</linearGradient>
	<path fill="url(#MhiQYBXFKynsC8~zn9Kjpd)" d="M27,46c13.468-1.941,25.735-13.028,27.676-26.496c0.329-2.282,0.401-4.523,0.247-6.701 c-0.102-1.451-1.275-2.624-2.726-2.726c-2.178-0.154-4.418-0.082-6.701,0.247C32.028,12.265,20.941,24.532,19,38L27,46z"></path>
	<path fill="#fff" d="M41.5 19A4.5 4.5 0 1 0 41.5 28A4.5 4.5 0 1 0 41.5 19Z"></path>
	<linearGradient id="MhiQYBXFKynsC8~zn9Kjpe" x1="18" x2="18" y1="53" y2="41" gradientUnits="userSpaceOnUse" spreadMethod="reflect">
		<stop offset="0" stop-color="#ff634d"></stop>
		<stop offset=".207" stop-color="#fe6464"></stop>
		<stop offset=".527" stop-color="#fc6581"></stop>
		<stop offset=".802" stop-color="#fa6694"></stop>
		<stop offset="1" stop-color="#fa669a"></stop>
	</linearGradient>
	<path fill="url(#MhiQYBXFKynsC8~zn9Kjpe)" d="M17.757,41L17.757,41C14.578,41,12,43.578,12,46.757V51c0,1.105,0.895,2,2,2h4.243 C21.422,53,24,50.422,24,47.243v0c0-0.796-0.316-1.559-0.879-2.121l-3.243-3.243C19.316,41.316,18.553,41,17.757,41z"></path>
</svg>