<svg
	xmlns="http://www.w3.org/2000/svg" data-name="Layer 1" viewBox="0 0 64 64">
	<path fill="#f9e3ae" d="M3,23H7a4,4,0,0,1,4,4V41a4,4,0,0,1-4,4H3a0,0,0,0,1,0,0V23A0,0,0,0,1,3,23Z" transform="rotate(-180 7 34)"></path>
	<path fill="#f6d397" d="M3,34h8a0,0,0,0,1,0,0V45a0,0,0,0,1,0,0H6a3,3,0,0,1-3-3V34A0,0,0,0,1,3,34Z"></path>
	<path fill="#f9e3ae" d="M53,23h4a4,4,0,0,1,4,4V41a4,4,0,0,1-4,4H53a0,0,0,0,1,0,0V23A0,0,0,0,1,53,23Z"></path>
	<path fill="#f6d397" d="M53,34h8a0,0,0,0,1,0,0v8a3,3,0,0,1-3,3H53a0,0,0,0,1,0,0V34A0,0,0,0,1,53,34Z"></path>
	<rect width="4" height="26" x="11" y="21" fill="#acb7d0" rx="2" ry="2"></rect>
	<rect width="4" height="26" x="49" y="21" fill="#acb7d0" rx="2" ry="2"></rect>
	<rect width="8" height="6" x="31" y="55" fill="#8b8e98" rx="2" ry="2"></rect>
	<path fill="#c2cde7" d="M44.16,14.31a2,2,0,0,1-2.78.16,13.85,13.85,0,0,0-18.79,0,2,2,0,0,1-2.77-.15L15,9.18A21.23,21.23,0,0,1,31,1.7h2.1A21.23,21.23,0,0,1,49,9.13Z"></path>
	<path fill="#acb7d0" d="M31,6.7a20.86,20.86,0,0,0-13.54,5.07l2.41,2.57a2,2,0,0,0,2.77.15,13.85,13.85,0,0,1,18.79,0,2,2,0,0,0,2.78-.16l2.4-2.57a20.86,20.86,0,0,0-13.51-5Z"></path>
	<path fill="#8d6c9f" d="M32 4a1 1 0 0 0-1 1V7a1 1 0 0 0 2 0V5A1 1 0 0 0 32 4zM27.4 5.47A1 1 0 0 0 25.47 6L26 7.92a1 1 0 1 0 1.93-.52zM43.25 7a1 1 0 0 0-1.37.37l-1 1.73a1 1 0 0 0 1.73 1l1-1.73A1 1 0 0 0 43.25 7zM22.12 7.38a1 1 0 0 0-1.73 1l1 1.73a1 1 0 0 0 1.73-1zM37.82 4.77a1 1 0 0 0-1.22.71l-.52 1.93A1 1 0 1 0 38 7.92L38.53 6A1 1 0 0 0 37.82 4.77z"></path>
	<path fill="#8d6c9f" d="M57,22H56A23,23,0,0,0,33,0H31A23,23,0,0,0,8,22H7a5,5,0,0,0-5,5V41a5,5,0,0,0,5,5h3.18A3,3,0,0,0,16,45V23a3,3,0,0,0-5.82-1h-.13a20.87,20.87,0,0,1,4.43-11.92L19,14.53a4,4,0,0,0,2.81,1.16,3.92,3.92,0,0,0,2.51-.91,12,12,0,0,1,15.33,0A4,4,0,0,0,45,14.5L49.49,10a20.87,20.87,0,0,1,4.46,12h-.13A3,3,0,0,0,48,23V45a3,3,0,0,0,5.82,1H55v2a9,9,0,0,1-9,9H39.86A4,4,0,0,0,36,54H34a4,4,0,0,0,0,8h2a4,4,0,0,0,3.86-3H46A11,11,0,0,0,57,48V46a5,5,0,0,0,5-5V27A5,5,0,0,0,57,22ZM4,41V27a3,3,0,0,1,3-3h3V44H7A3,3,0,0,1,4,41Zm9-19a1,1,0,0,1,1,1V45a1,1,0,0,1-2,0V23A1,1,0,0,1,13,22Zm30.57-8.93a2,2,0,0,1-2.65.14,14,14,0,0,0-17.88,0,2,2,0,0,1-2.64-.14L15.79,8.57A20.92,20.92,0,0,1,31,2h2A20.92,20.92,0,0,1,48.18,8.53ZM36,60H34a2,2,0,0,1,0-4h2a2,2,0,0,1,0,4ZM51,46a1,1,0,0,1-1-1V23a1,1,0,0,1,2,0V45A1,1,0,0,1,51,46Zm6-2H54V24h3a3,3,0,0,1,3,3V41A3,3,0,0,1,57,44Z"></path>
</svg>