<svg
	xmlns="http://www.w3.org/2000/svg" viewBox="0 0 64 64">
	<polygon fill="#cda1a7" points="55.955,22.672 46.063,19.001 17.939,19 8.045,22.672 8.045,51.063 55.955,51.063"></polygon>
	<path fill="#8d6c9f" d="M55.955,52.063H8.045c-0.552,0-1-0.448-1-1V22.672c0-0.418,0.26-0.792,0.652-0.938l9.893-3.672 C17.702,18.021,17.82,18,17.938,18l0,0l28.124,0.001c0.119,0,0.237,0.021,0.348,0.062l9.892,3.671 c0.392,0.146,0.652,0.52,0.652,0.938v28.391C56.955,51.615,56.507,52.063,55.955,52.063z M9.045,50.063h45.909V23.368l-9.072-3.366 L18.118,20l-9.073,3.368V50.063z"></path>
	<path fill="#faefde" d="M8.045,22.672v28.391L32,61V32.609L8.045,22.672z"></path>
	<polygon fill="#efd8be" points="32,61 55.955,51.063 55.955,22.672 32,32.609"></polygon>
	<ellipse cx="32" cy="19.971" fill="#75b8e5" rx="16" ry="15.971"></ellipse>
	<path fill="#9fddff" d="M48,20c0,8.837-6.268,16-14,16c4.087-4.655,6.062-6.21,6-16c-0.056-8.836-4-14-6-16 C41,6,48,11.163,48,20z"></path>
	<path fill="#85cbf8" d="M32,4v32c4.418,0,8-7.163,8-16S36.418,4,32,4z"></path>
	<path fill="#8d6c9f" d="M32,37c-4.638,0-8.396-6.282-8.936-14.938c-0.034-0.551,0.385-1.026,0.936-1.06 c0.547-0.038,1.026,0.384,1.06,0.936C25.517,29.262,28.565,35,32,35c3.794,0,7-6.869,7-15S35.794,5,32,5 c-3.435,0-6.483,5.738-6.94,13.062c-0.034,0.552-0.51,0.979-1.06,0.936c-0.551-0.034-0.97-0.509-0.936-1.06 C23.604,9.282,27.362,3,32,3c5.047,0,9,7.467,9,17S37.047,37,32,37z"></path>
	<path fill="#8d6c9f" d="M32,36.943c-9.374,0-17-7.613-17-16.971C15,10.613,22.626,3,32,3s17,7.613,17,16.972 C49,29.33,41.374,36.943,32,36.943z M32,5c-8.271,0-15,6.716-15,14.972s6.729,14.971,15,14.971s15-6.716,15-14.971S40.271,5,32,5z"></path>
	<path fill="#8d6c9f" d="M32,37c-0.552,0-1-0.448-1-1V4c0-0.552,0.448-1,1-1s1,0.448,1,1v32C33,36.552,32.552,37,32,37z"></path>
	<path fill="#8d6c9f" d="M32,15c-4.795,0-9.364-1.15-12.535-3.155c-0.467-0.295-0.605-0.913-0.311-1.38 c0.296-0.466,0.912-0.607,1.38-0.311C23.394,11.963,27.573,13,32,13s8.606-1.037,11.465-2.845c0.466-0.297,1.084-0.156,1.38,0.311 c0.295,0.467,0.156,1.084-0.311,1.38C41.364,13.85,36.795,15,32,15z"></path>
	<path fill="#8d6c9f" d="M43.999,31c-0.183,0-0.368-0.05-0.534-0.155C40.606,29.037,36.427,28,32,28 s-8.606,1.037-11.465,2.845c-0.469,0.295-1.085,0.155-1.38-0.311c-0.295-0.467-0.156-1.084,0.311-1.38 C22.636,27.15,27.205,26,32,26s9.364,1.15,12.535,3.155c0.467,0.295,0.605,0.913,0.311,1.38C44.655,30.835,44.331,31,43.999,31z"></path>
	<path fill="#8d6c9f" d="M32,62c-0.13,0-0.26-0.025-0.383-0.076L7.662,51.987c-0.373-0.155-0.617-0.52-0.617-0.924V22.672 c0-0.334,0.167-0.646,0.445-0.832c0.278-0.185,0.629-0.219,0.938-0.092l23.955,9.937C32.756,31.841,33,32.205,33,32.609V61 c0,0.334-0.167,0.646-0.445,0.832C32.389,61.943,32.195,62,32,62z M9.045,50.395L31,59.502V33.277L9.045,24.17V50.395z"></path>
	<g>
		<polygon fill="#fef7f0" points="24.955,45.385 32,32.609 8.045,22.672 1,34.029"></polygon>
	</g>
	<g>
		<path fill="#8d6c9f" d="M24.954,46.385c-0.144,0-0.29-0.031-0.428-0.096L0.572,34.933c-0.257-0.122-0.451-0.348-0.531-0.621 c-0.08-0.273-0.041-0.568,0.11-0.81l7.045-11.356c0.258-0.416,0.777-0.584,1.233-0.396l23.955,9.937 c0.263,0.109,0.466,0.325,0.561,0.593c0.094,0.269,0.069,0.564-0.068,0.813L25.83,45.868 C25.649,46.197,25.308,46.385,24.954,46.385z M2.44,33.605l22.093,10.474l6.052-10.974L8.447,23.922L2.44,33.605z"></path>
	</g>
	<g>
		<path fill="#8d6c9f" d="M32,62c-0.195,0-0.389-0.057-0.555-0.168C31.167,61.646,31,61.334,31,61V32.609 c0-0.404,0.244-0.769,0.617-0.924l23.955-9.937c0.308-0.127,0.66-0.094,0.938,0.092c0.278,0.186,0.445,0.498,0.445,0.832v28.391 c0,0.404-0.244,0.769-0.617,0.924l-23.955,9.937C32.26,61.975,32.13,62,32,62z M33,33.277v26.225l21.955-9.107V24.17L33,33.277z"></path>
	</g>
	<g>
		<polygon fill="#fef7f0" points="63,34.029 55.955,22.672 32,32.609 39.045,45.385"></polygon>
	</g>
	<g>
		<rect width="26.557" height="4.882" x="36.544" y="34.87" fill="#faefde" transform="rotate(-24.674 49.827 37.316)"></rect>
	</g>
	<g>
		<path fill="#8d6c9f" d="M39.046,46.385c-0.354,0-0.695-0.188-0.876-0.517l-7.045-12.776 c-0.138-0.249-0.162-0.545-0.068-0.813c0.094-0.269,0.298-0.484,0.561-0.593l23.955-9.937c0.454-0.188,0.975-0.02,1.233,0.396 l7.045,11.356c0.15,0.242,0.19,0.537,0.11,0.81c-0.081,0.273-0.274,0.499-0.531,0.621L39.474,46.289 C39.336,46.354,39.19,46.385,39.046,46.385z M33.415,33.105l6.052,10.974L61.56,33.605l-6.007-9.683L33.415,33.105z"></path>
	</g>
	<g>
		<path fill="none" d="M60.5,29.5l-23,11"></path>
		<path fill="#8d6c9f" d="M56.932,33.315c-0.373,0-0.731-0.209-0.902-0.568l-0.863-1.804 c-0.239-0.498-0.028-1.095,0.47-1.333c0.496-0.24,1.095-0.028,1.333,0.47l0.863,1.804c0.239,0.498,0.028,1.095-0.47,1.333 C57.224,33.284,57.077,33.315,56.932,33.315z"></path>
		<path fill="#8d6c9f" d="M51.932,35.707c-0.373,0-0.731-0.209-0.902-0.568l-0.863-1.804 c-0.239-0.498-0.028-1.095,0.47-1.333c0.497-0.24,1.095-0.028,1.333,0.47l0.863,1.804c0.239,0.498,0.028,1.095-0.47,1.333 C52.224,35.675,52.077,35.707,51.932,35.707z"></path>
		<path fill="#8d6c9f" d="M46.932,38.098c-0.373,0-0.731-0.209-0.902-0.568l-0.863-1.804 c-0.239-0.498-0.028-1.095,0.47-1.333c0.497-0.24,1.096-0.029,1.333,0.47l0.863,1.804c0.239,0.498,0.028,1.095-0.47,1.333 C47.224,38.066,47.077,38.098,46.932,38.098z"></path>
		<path fill="#8d6c9f" d="M41.932,40.489c-0.373,0-0.731-0.209-0.902-0.568l-0.863-1.804 c-0.239-0.498-0.028-1.095,0.47-1.333c0.496-0.24,1.095-0.028,1.333,0.47l0.863,1.804c0.239,0.498,0.028,1.095-0.47,1.333 C42.224,40.458,42.077,40.489,41.932,40.489z"></path>
	</g>
</svg>