<svg>
	<symbol id="home" viewBox="0 0 50 50" xmlns="http://www.w3.org/2000/svg">
		<path d="M 24.962891 1.0546875 A 1.0001 1.0001 0 0 0 24.384766 1.2636719 L 1.3847656 19.210938 A 1.0005659 1.0005659 0 0 0 2.6152344 20.789062 L 4 19.708984 L 4 46 A 1.0001 1.0001 0 0 0 5 47 L 18.832031 47 A 1.0001 1.0001 0 0 0 19.158203 47 L 30.832031 47 A 1.0001 1.0001 0 0 0 31.158203 47 L 45 47 A 1.0001 1.0001 0 0 0 46 46 L 46 19.708984 L 47.384766 20.789062 A 1.0005657 1.0005657 0 1 0 48.615234 19.210938 L 41 13.269531 L 41 6 L 35 6 L 35 8.5859375 L 25.615234 1.2636719 A 1.0001 1.0001 0 0 0 24.962891 1.0546875 z M 25 3.3222656 L 44 18.148438 L 44 45 L 32 45 L 32 26 L 18 26 L 18 45 L 6 45 L 6 18.148438 L 25 3.3222656 z M 37 8 L 39 8 L 39 11.708984 L 37 10.146484 L 37 8 z M 20 28 L 30 28 L 30 45 L 20 45 L 20 28 z"></path>
	</symbol>
	<symbol id="me" viewBox="0 0 448 512" xmlns="http://www.w3.org/2000/svg">
		<path d="M313.6 288c-28.7 0-42.5 16-89.6 16-47.1 0-60.8-16-89.6-16C60.2 288 0 348.2 0 422.4V464c0 26.5 21.5 48 48 48h352c26.5 0 48-21.5 48-48v-41.6c0-74.2-60.2-134.4-134.4-134.4zM416 464c0 8.8-7.2 16-16 16H48c-8.8 0-16-7.2-16-16v-41.6C32 365.9 77.9 320 134.4 320c19.6 0 39.1 16 89.6 16 50.4 0 70-16 89.6-16 56.5 0 102.4 45.9 102.4 102.4V464zM224 256c70.7 0 128-57.3 128-128S294.7 0 224 0 96 57.3 96 128s57.3 128 128 128zm0-224c52.9 0 96 43.1 96 96s-43.1 96-96 96-96-43.1-96-96 43.1-96 96-96z"></path>
	</symbol>
	<symbol id="services" viewBox="0 0 512 512" xmlns="http://www.w3.org/2000/svg">
		<path d="M488.6 256.7L388 219V107.9c0-15-9.3-28.4-23.4-33.7l-96-36c-8.1-3.1-17.1-3.1-25.3 0l-96 36c-14.1 5.3-23.4 18.7-23.4 33.7V219L23.4 256.7C9.3 262 0 275.4 0 290.4v101.3c0 13.6 7.7 26.1 19.9 32.2l96 48c10.1 5.1 22.1 5.1 32.2 0L256 418l107.9 54c10.1 5.1 22.1 5.1 32.2 0l96-48c12.2-6.1 19.9-18.6 19.9-32.2V290.4c0-15-9.3-28.4-23.4-33.7zM16.5 403.8V295.1l107.2 46.5v115.8zm231 0l-107.2 53.6V341.6l107.2-46.5zm0-126.7l-115.5 50-115.5-50v-.2L131 234l107.6 39.6 8.9 3.3zm.3-19.7L195 239.6l-54.5-20.4V112.5L247.8 159zM140.5 94.5v-.1L256 51l115.5 43.3v.2l-115.5 50zM264.2 159l107.2-46.5v106.7L317 239.6l-52.8 17.8zm107.6 298.4l-107.2-53.6V295.1l107.2 46.5zm123.7-53.6l-107.2 53.6V341.6l107.2-46.5zm0-126.7l-115.5 50L264.5 277v-.2l8.9-3.3L381 234l114.5 42.9z"></path>
	</symbol>
	<symbol id="clients" viewBox="0 0 576 512" xmlns="http://www.w3.org/2000/svg">
		<path d="M528.1 171.5L382 150.2 316.7 17.8c-11.7-23.6-45.6-23.9-57.4 0L194 150.2 47.9 171.5c-26.2 3.8-36.7 36.1-17.7 54.6l105.7 103-25 145.5c-4.5 26.3 23.2 46 46.4 33.7L288 439.6l130.7 68.7c23.2 12.2 50.9-7.4 46.4-33.7l-25-145.5 105.7-103c19-18.5 8.5-50.8-17.7-54.6zM405.8 317.9l27.8 162L288 403.5 142.5 480l27.8-162L52.5 203.1l162.7-23.6L288 32l72.8 147.5 162.7 23.6-117.7 114.8z"></path>
	</symbol>
	<symbol id="pricing" viewBox="0 0 256 512" xmlns="http://www.w3.org/2000/svg">
		<path d="M191.9 259.3L73.7 222.2C49.2 214.5 32 189 32 160.3 32 124.8 57.6 96 89 96h73.8c22.2 0 43.3 8.6 60.1 24.5 3.1 2.9 7.8 3.2 11 .3l11.9-10.8c3.4-3.1 3.6-8.4.4-11.6-22.8-22-52.7-34.5-83.3-34.5H144V8c0-4.4-3.6-8-8-8h-16c-4.4 0-8 3.6-8 8v56H89c-49.1 0-89 43.2-89 96.3 0 42.6 26.4 80.6 64.1 92.4l118.2 37.1c24.6 7.7 41.7 33.2 41.7 61.9 0 35.4-25.6 64.3-57 64.3H93.2c-22.2 0-43.3-8.6-60.1-24.5-3.1-2.9-7.8-3.2-11-.3L10.3 402c-3.3 3-3.6 8.4-.3 11.5 22.8 22 52.7 34.5 83.3 34.5H112v56c0 4.4 3.6 8 8 8h16c4.4 0 8-3.6 8-8v-56h23c49.1 0 89-43.2 89-96.3 0-42.5-26.4-80.5-64.1-92.4z"></path>
	</symbol>
	<symbol id="contact" viewBox="0 0 512 512" xmlns="http://www.w3.org/2000/svg">
		<path d="M464 4.3L16 262.7C-7 276-4.7 309.9 19.8 320L160 378v102c0 30.2 37.8 43.3 56.7 20.3l60.7-73.8 126.4 52.2c19.1 7.9 40.7-4.2 43.8-24.7l64-417.1C515.7 10.2 487-9 464 4.3zM192 480v-88.8l54.5 22.5L192 480zm224-30.9l-206.2-85.2 199.5-235.8c4.8-5.6-2.9-13.2-8.5-8.4L145.5 337.3 32 290.5 480 32l-64 417.1z"></path>
	</symbol>

	<symbol id="completed" viewBox="0 0 384 512" xmlns="http://www.w3.org/2000/svg">
		<path d="M216 24.01c0-23.8-31.16-33.11-44.15-13.04C76.55 158.25 200 238.73 200 288c0 22.06-17.94 40-40 40s-40-17.94-40-40V182.13c0-19.39-21.85-30.76-37.73-19.68C30.75 198.38 0 257.28 0 320c0 105.87 86.13 192 192 192s192-86.13 192-192c0-170.29-168-192.85-168-295.99zM192 480c-88.22 0-160-71.78-160-160 0-46.94 20.68-97.75 56-128v96c0 39.7 32.3 72 72 72s72-32.3 72-72c0-65.11-112-128-45.41-248C208 160 352 175.3 352 320c0 88.22-71.78 160-160 160z"></path>
	</symbol>
	<symbol id="clock" viewBox="0 0 512 512" xmlns="http://www.w3.org/2000/svg">
		<path d="M256 8C119 8 8 119 8 256s111 248 248 248 248-111 248-248S393 8 256 8zm216 248c0 118.7-96.1 216-216 216-118.7 0-216-96.1-216-216 0-118.7 96.1-216 216-216 118.7 0 216 96.1 216 216zm-148.9 88.3l-81.2-59c-3.1-2.3-4.9-5.9-4.9-9.7V116c0-6.6 5.4-12 12-12h14c6.6 0 12 5.4 12 12v146.3l70.5 51.3c5.4 3.9 6.5 11.4 2.6 16.8l-8.2 11.3c-3.9 5.3-11.4 6.5-16.8 2.6z"></path>
	</symbol>
	<symbol id="happy" viewBox="0 0 496 512" xmlns="http://www.w3.org/2000/svg">
		<path d="M248 8C111 8 0 119 0 256s111 248 248 248 248-111 248-248S385 8 248 8zm0 464c-119.1 0-216-96.9-216-216S128.9 40 248 40s216 96.9 216 216-96.9 216-216 216zm90.2-146.2C315.8 352.6 282.9 368 248 368s-67.8-15.4-90.2-42.2c-5.7-6.8-15.8-7.7-22.5-2-6.8 5.7-7.7 15.7-2 22.5C161.7 380.4 203.6 400 248 400s86.3-19.6 114.8-53.8c5.7-6.8 4.8-16.9-2-22.5-6.8-5.6-16.9-4.7-22.6 2.1zM168 240c17.7 0 32-14.3 32-32s-14.3-32-32-32-32 14.3-32 32 14.3 32 32 32zm160 0c17.7 0 32-14.3 32-32s-14.3-32-32-32-32 14.3-32 32 14.3 32 32 32z"></path>
	</symbol>
	<symbol id="coffee" viewBox="0 0 512 512" xmlns="http://www.w3.org/2000/svg">
		<path d="M416 192.1H32c-17.7 0-32 14.3-32 32V416c0 53 43 96 96 96h192c53 0 96-43 96-96v-32h32c52.9 0 96-43 96-96s-43.1-95.9-96-95.9zM352 416c0 35.3-28.7 64-64 64H96c-35.3 0-64-28.7-64-64V224.1h320V416zm64-64h-32V224h32c35.3 0 64 28.7 64 64s-28.7 64-64 64zM191.3 78.5c17.3 17.2 30.4 40.7 32.2 73.4.2 4.3 3.7 7.8 8 7.8h16c4.5 0 8.2-3.7 8-8.2-2.1-42.1-19.3-73.3-41.6-95.5-18.4-18.7-21.1-38.2-21.9-48.9-.3-4.1-3.9-7.1-8-7.1l-16 .1c-4.7 0-8.2 4-7.9 8.7.9 14.9 5.2 43.6 31.2 69.7zm-95.6 0c17.3 17.2 30.4 40.7 32.2 73.4.2 4.3 3.7 7.8 8 7.8h16c4.5 0 8.2-3.7 8-8.2-2.1-42.1-19.3-73.3-41.6-95.5-18.3-18.7-21-38.2-21.8-48.9C96.2 3 92.6 0 88.4 0l-16 .1c-4.7 0-8.2 4-7.9 8.7 1 14.9 5.2 43.6 31.2 69.7z"></path>
	</symbol>
	<symbol id="popup_close" viewBox="0 0 24 24" xmlns="http://www.w3.org/2000/svg">
		<path d="M19 6.41l-1.41-1.41-5.59 5.59-5.59-5.59-1.41 1.41 5.59 5.59-5.59 5.59 1.41 1.41 5.59-5.59 5.59 5.59 1.41-1.41-5.59-5.59 5.59-5.59z"></path>
	</symbol>
</svg>